<?xml version="1.0" encoding="UTF-8"?>
<!DOCTYPE svg PUBLIC "-//W3C//DTD SVG 1.1//EN" "http://www.w3.org/Graphics/SVG/1.1/DTD/svg11.dtd">
<!-- Creator: CorelDRAW X7 -->
<svg xmlns="http://www.w3.org/2000/svg" xml:space="preserve" width="75px" height="75px" version="1.1" style="shape-rendering:geometricPrecision; text-rendering:geometricPrecision; image-rendering:optimizeQuality; fill-rule:evenodd; clip-rule:evenodd"
viewBox="0 0 75 75"
 xmlns:xlink="http://www.w3.org/1999/xlink"
 enable-background="new 0 0 509.275 509.275">
 <defs>
  <style type="text/css">
   <![CDATA[
    .fil0 {fill:#00A0FE}
    .fil1 {fill:#F2F2F2}
   ]]>
  </style>
 </defs>
 <g id="Слой_x0020_1">
  <metadata id="CorelCorpID_0Corel-Layer"/>
  <circle class="fil0" cx="38" cy="38" r="38"/>
  <g id="_2322314144480">
   <path class="fil1" d="M55 42l0 -14 -28 -5 0 -2c0,-2 -2,-3 -3,-3l-4 0 0 2 4 0c0,0 1,1 1,1l0 22c0,2 2,4 4,4l1 0 0 3c0,0 -1,0 -1,0 -3,0 -4,1 -4,3 0,3 1,4 4,4 2,0 3,-1 3,-3l0 0 0 -7 21 0 0 3c-1,0 -1,0 -2,0 -2,0 -4,1 -4,3 0,3 2,4 4,4 2,0 4,-1 4,-3l0 0 0 -9 -26 0c-1,0 -2,-1 -2,-2l0 -1 28 0zm-26 13c-1,0 -2,-1 -2,-2 0,0 1,-1 2,-1 0,0 1,1 1,1 0,1 -1,2 -1,2zm22 0c-1,0 -1,-1 -1,-2 0,0 0,-1 1,-1 1,0 2,1 2,1 0,1 -1,2 -2,2zm-12 -15l-5 0 0 -13 5 0 0 13zm2 -12l4 1 0 11 -4 0 0 -12zm-9 11l-5 0 0 -14 5 1 0 13zm21 1l-5 0 0 -11 5 1 0 10z"/>
  </g>
 </g>
</svg>
